<svg width="125" height="24" viewBox="0 0 125 24" fill="none" xmlns="http://www.w3.org/2000/svg">
<path d="M33.9787 17L34.9134 14.3054H38.8906L39.8203 17H41.451L37.7869 6.81818H36.0121L32.348 17H33.9787ZM35.3608 13.0128L36.8622 8.66761H36.9418L38.4432 13.0128H35.3608ZM45.5376 17.1491C46.9297 17.1491 47.4766 16.299 47.745 15.8118H47.8693V17H49.321V6.81818H47.8345V10.6016H47.745C47.4766 10.1293 46.9695 9.2642 45.5476 9.2642C43.7031 9.2642 42.3459 10.7209 42.3459 13.1967C42.3459 15.6676 43.6832 17.1491 45.5376 17.1491ZM45.8658 15.8814C44.5384 15.8814 43.8473 14.7131 43.8473 13.1818C43.8473 11.6655 44.5234 10.527 45.8658 10.527C47.1634 10.527 47.8594 11.5859 47.8594 13.1818C47.8594 14.7876 47.1484 15.8814 45.8658 15.8814ZM54.3013 17.1491C55.6934 17.1491 56.2402 16.299 56.5087 15.8118H56.633V17H58.0847V6.81818H56.5982V10.6016H56.5087C56.2402 10.1293 55.7331 9.2642 54.3113 9.2642C52.4668 9.2642 51.1096 10.7209 51.1096 13.1967C51.1096 15.6676 52.4469 17.1491 54.3013 17.1491ZM54.6294 15.8814C53.302 15.8814 52.611 14.7131 52.611 13.1818C52.611 11.6655 53.2871 10.527 54.6294 10.527C55.927 10.527 56.623 11.5859 56.623 13.1818C56.623 14.7876 55.9121 15.8814 54.6294 15.8814ZM63.4975 17.1541C65.163 17.1541 66.3413 16.3338 66.6793 15.0909L65.2724 14.8374C65.0039 15.5582 64.3576 15.9261 63.5124 15.9261C62.2397 15.9261 61.3846 15.1009 61.3448 13.6293H66.7738V13.1023C66.7738 10.343 65.1232 9.2642 63.3931 9.2642C61.2653 9.2642 59.8633 10.8849 59.8633 13.2315C59.8633 15.603 61.2454 17.1541 63.4975 17.1541ZM61.3498 12.5156C61.4094 11.4318 62.195 10.4922 63.4031 10.4922C64.5565 10.4922 65.3121 11.3473 65.3171 12.5156H61.3498ZM71.2818 17.1491C72.6738 17.1491 73.2207 16.299 73.4892 15.8118H73.6135V17H75.0652V6.81818H73.5787V10.6016H73.4892C73.2207 10.1293 72.7136 9.2642 71.2917 9.2642C69.4473 9.2642 68.09 10.7209 68.09 13.1967C68.09 15.6676 69.4274 17.1491 71.2818 17.1491ZM71.6099 15.8814C70.2825 15.8814 69.5914 14.7131 69.5914 13.1818C69.5914 11.6655 70.2676 10.527 71.6099 10.527C72.9075 10.527 73.6035 11.5859 73.6035 13.1818C73.6035 14.7876 72.8926 15.8814 71.6099 15.8814ZM84.4565 9.36364H82.8904V7.53409H81.4039V9.36364H80.2853V10.5568H81.4039V15.0661C81.399 16.4531 82.4579 17.1243 83.6312 17.0994C84.1035 17.0945 84.4217 17.005 84.5957 16.9403L84.3272 15.7124C84.2278 15.7322 84.0439 15.777 83.8052 15.777C83.323 15.777 82.8904 15.6179 82.8904 14.7578V10.5568H84.4565V9.36364ZM89.2354 17.1541C91.3881 17.1541 92.7951 15.5781 92.7951 13.2166C92.7951 10.8402 91.3881 9.2642 89.2354 9.2642C87.0827 9.2642 85.6758 10.8402 85.6758 13.2166C85.6758 15.5781 87.0827 17.1541 89.2354 17.1541ZM89.2404 15.9062C87.8335 15.9062 87.1772 14.6783 87.1772 13.2116C87.1772 11.75 87.8335 10.5071 89.2404 10.5071C90.6374 10.5071 91.2937 11.75 91.2937 13.2116C91.2937 14.6783 90.6374 15.9062 89.2404 15.9062ZM101.376 17.1541C103.181 17.1541 104.349 16.0703 104.513 14.5838H103.066C102.877 15.4091 102.236 15.8963 101.386 15.8963C100.128 15.8963 99.3178 14.8473 99.3178 13.1818C99.3178 11.5462 100.143 10.517 101.386 10.517C102.331 10.517 102.907 11.1136 103.066 11.8295H104.513C104.354 10.2884 103.096 9.2642 101.361 9.2642C99.2085 9.2642 97.8164 10.8849 97.8164 13.2166C97.8164 15.5185 99.1587 17.1541 101.376 17.1541ZM108.325 17.169C109.588 17.169 110.299 16.5277 110.582 15.956H110.642V17H112.094V11.929C112.094 9.70668 110.344 9.2642 109.131 9.2642C107.748 9.2642 106.476 9.82102 105.979 11.2131L107.376 11.5312C107.594 10.9893 108.151 10.4673 109.15 10.4673C110.11 10.4673 110.602 10.9695 110.602 11.8345V11.8693C110.602 12.4112 110.045 12.4013 108.673 12.5604C107.226 12.7294 105.745 13.1072 105.745 14.8423C105.745 16.3438 106.873 17.169 108.325 17.169ZM108.648 15.9759C107.808 15.9759 107.202 15.598 107.202 14.8622C107.202 14.0668 107.907 13.7834 108.768 13.669C109.25 13.6044 110.393 13.4751 110.607 13.2614V14.2457C110.607 15.1506 109.886 15.9759 108.648 15.9759ZM114.074 17H115.56V12.3366C115.56 11.3374 116.331 10.6165 117.385 10.6165C117.693 10.6165 118.041 10.6712 118.16 10.706V9.28409C118.011 9.2642 117.718 9.24929 117.529 9.24929C116.634 9.24929 115.868 9.75639 115.59 10.5767H115.51V9.36364H114.074V17ZM123.462 9.36364H121.896V7.53409H120.41V9.36364H119.291V10.5568H120.41V15.0661C120.405 16.4531 121.464 17.1243 122.637 17.0994C123.109 17.0945 123.428 17.005 123.602 16.9403L123.333 15.7124C123.234 15.7322 123.05 15.777 122.811 15.777C122.329 15.777 121.896 15.6179 121.896 14.7578V10.5568H123.462V9.36364Z" fill="#A3D69B"/>
<path d="M12 24C18.6165 24 24 18.6169 24 12C24 10.8579 23.8406 9.73242 23.5249 8.65454C23.3694 8.12451 22.8159 7.82007 22.2844 7.97559C21.7539 8.13062 21.4504 8.68604 21.6055 9.21606C21.8669 10.1116 22 11.0486 22 12C22 17.5139 17.5139 22 12 22C6.48608 22 2 17.5139 2 12C2 6.48608 6.48608 2 12 2C14.0039 2 15.9319 2.58594 17.5754 3.69409C18.033 4.00293 18.655 3.88159 18.9634 3.42407C19.272 2.96606 19.1516 2.34448 18.6936 2.03589C16.7185 0.704102 14.4041 0 12 0C5.38354 0 0 5.38306 0 12C0 18.6169 5.38354 24 12 24Z" fill="#A3D69B"/>
<path d="M22.2928 2.29297L11.9998 12.5854L8.70685 9.29297C8.31622 8.90259 7.68341 8.90259 7.29279 9.29297C6.9024 9.68359 6.9024 10.3164 7.29279 10.707L11.2928 14.707C11.4883 14.9026 11.7437 15 11.9998 15C12.2559 15 12.5113 14.9026 12.7068 14.707L23.7068 3.70703C24.0972 3.31641 24.0972 2.68359 23.7068 2.29297C23.3162 1.90259 22.6834 1.90259 22.2928 2.29297Z" fill="#A3D69B"/>
</svg>
